<svg viewBox="0 0 680 300" width="100%" xmlns="http://www.w3.org/2000/svg" role="img">
  <title>RHadmin</title>
  <desc>Logótipo RHadmin: ícone engrenagem com pessoas e texto RH Admin</desc>

  <!-- Sem fundo (transparente) -->

  <!-- Ícone: pessoas dentro de engrenagem -->
  <g transform="translate(155,148)">
    <circle cx="0" cy="0" r="68" fill="#0F6E56"/>
    <circle cx="0" cy="0" r="50" fill="#085041"/>

    <rect x="-7" y="-72" width="14" height="18" rx="4" fill="#0F6E56"/>
    <rect x="-7" y="54" width="14" height="18" rx="4" fill="#0F6E56"/>
    <rect x="54" y="-7" width="18" height="14" rx="4" fill="#0F6E56"/>
    <rect x="-72" y="-7" width="18" height="14" rx="4" fill="#0F6E56"/>
    <rect x="-7" y="-72" width="14" height="18" rx="4" fill="#0F6E56" transform="rotate(30)"/>
    <rect x="-7" y="-72" width="14" height="18" rx="4" fill="#0F6E56" transform="rotate(60)"/>
    <rect x="-7" y="-72" width="14" height="18" rx="4" fill="#0F6E56" transform="rotate(120)"/>
    <rect x="-7" y="-72" width="14" height="18" rx="4" fill="#0F6E56" transform="rotate(150)"/>
    <rect x="-7" y="-72" width="14" height="18" rx="4" fill="#0F6E56" transform="rotate(210)"/>
    <rect x="-7" y="-72" width="14" height="18" rx="4" fill="#0F6E56" transform="rotate(240)"/>
    <rect x="-7" y="-72" width="14" height="18" rx="4" fill="#0F6E56" transform="rotate(300)"/>
    <rect x="-7" y="-72" width="14" height="18" rx="4" fill="#0F6E56" transform="rotate(330)"/>

    <circle cx="0" cy="0" r="49" fill="none" stroke="#1D9E75" stroke-width="1.5"/>

    <!-- Pessoa esquerda -->
    <circle cx="-16" cy="-14" r="14" fill="#5DCAA5"/>
    <path d="M-42 22 Q-42 2 -16 2 Q10 2 10 22" fill="#5DCAA5"/>

    <!-- Pessoa direita -->
    <circle cx="16" cy="-18" r="11" fill="#9FE1CB"/>
    <path d="M-4 20 Q-4 4 16 4 Q36 4 36 20" fill="#9FE1CB"/>

    <circle cx="0" cy="0" r="4" fill="#E1F5EE" opacity="0.6"/>
  </g>

  <!-- Texto -->
  <text x="262" y="130" font-family="Arial Black, Arial, sans-serif" font-size="74" font-weight="900" fill="#E1F5EE" letter-spacing="-1">RH</text>
  <rect x="262" y="140" width="170" height="2" rx="1" fill="#1D9E75"/>
  <text x="264" y="180" font-family="Arial, sans-serif" font-size="34" font-weight="400" fill="#9FE1CB" letter-spacing="8">Admin</text>
  <text x="340" y="225" font-family="Arial, sans-serif" font-size="12" fill="#5DCAA5" text-anchor="middle" letter-spacing="2.5">GESTÃO DE RECURSOS HUMANOS</text>
  <rect x="80" y="238" width="520" height="1" rx="0.5" fill="#0F6E56"/>
</svg>
